<svg xmlns="http://www.w3.org/2000/svg" xmlns:xlink="http://www.w3.org/1999/xlink" viewBox="0,0,256,256" width="48px" height="48px"><g transform=""><g fill="#4d5adc" fill-rule="nonzero" stroke="none" stroke-width="1" stroke-linecap="butt" stroke-linejoin="miter" stroke-miterlimit="10" stroke-dasharray="" stroke-dashoffset="0" font-family="none" font-weight="none" font-size="none" text-anchor="none" style="mix-blend-mode: normal"><path d="M0,256v-256h256v256z" id="bgRectangle"></path></g><g fill="none" fill-rule="nonzero" stroke="none" stroke-width="none" stroke-linecap="butt" stroke-linejoin="none" stroke-miterlimit="10" stroke-dasharray="" stroke-dashoffset="0" font-family="none" font-weight="none" font-size="none" text-anchor="none" style="mix-blend-mode: normal"><path transform="scale(5.33333,5.33333)" d="M9.499,28.446l0.59176,-1.446h-3.99776l4,-8h26.907c0.552,0 1,-0.448 1,-1c0,-0.552 -0.448,-1 -1,-1h-22.237l1.313,-2.809c1.479,-3.167 4.658,-5.191 8.154,-5.191h10.103c5.789,0 9.714,5.89 7.486,11.233c-1.66604,3.99498 -5.51313,6.6319 -9.819,6.76196v0.00504h-19c0,1.105 0.895,2 2,2h14.643c2.461,0 4.062,2.59 2.961,4.791l-0.222,0.445c-0.847,1.694 -2.578,2.764 -4.472,2.764h-12.668c-4.41,0 -7.413,-4.472 -5.743,-8.554z" id="strokeMainSVG" fill="#dddddd" stroke="#dddddd" stroke-width="2" stroke-linejoin="round"></path><g transform="scale(5.33333,5.33333)" fill-opacity="0.96863" fill="#fa5c7c" stroke="none" stroke-width="1" stroke-linejoin="miter"><path d="M15.242,37h12.668c1.894,0 3.625,-1.07 4.472,-2.764l0.222,-0.445c1.101,-2.201 -0.5,-4.791 -2.961,-4.791h-14.643c-1.105,0 -2,-0.895 -2,-2v-1h-2.5l-1.001,2.446c-1.67,4.082 1.333,8.554 5.743,8.554z"></path><path d="M6.093,27h25.907v-8h-21.907z"></path><path d="M34.333,9h-10.103c-3.496,0 -6.675,2.024 -8.154,5.191l-1.313,2.809h22.237c0.552,0 1,0.448 1,1c0,0.552 -0.448,1 -1,1h-23.171l-3.737,8h21.574c4.44,0 8.444,-2.669 10.153,-6.767v0c2.228,-5.343 -1.697,-11.233 -7.486,-11.233z"></path></g></g></g></svg>