
        <svg xmlns="http://www.w3.org/2000/svg" xmlns:xlink="http://www.w3.org/1999/xlink" version="1.1" width="3152.516524989545" 
        height="991.3574124320423" viewBox="0 0 3152.516524989545 991.3574124320423">
			
			<g transform="scale(7.625826249477249) translate(10, 10)">
				<defs id="SvgjsDefs8163"></defs><g id="SvgjsG8164" featureKey="symbolContainer" transform="matrix(1,0,0,1,0,0)" fill="#fe011b"><rect width="120" height="110" rx="8"></rect></g><g id="SvgjsG8165" featureKey="symbolFeature-0" transform="matrix(1,0,0,1,10,5)" fill="#ffffff"><path xmlns="http://www.w3.org/2000/svg" d="M35,65.833c0-8.587,3.535-16.36,9.219-21.956c-3.063-1.406-6.458-2.21-10.052-2.21C20.82,41.667,10,52.487,10,65.833  C10,79.18,20.82,90,34.167,90c3.594,0,6.988-0.804,10.052-2.21C38.535,82.194,35,74.421,35,65.833z"></path><path xmlns="http://www.w3.org/2000/svg" d="M65.833,65c-8.587,0-16.36-3.535-21.956-9.222c-1.406,3.066-2.21,6.461-2.21,10.055C41.667,79.18,52.487,90,65.833,90  C79.18,90,90,79.18,90,65.833c0-3.594-0.804-6.988-2.21-10.055C82.194,61.465,74.421,65,65.833,65z"></path><path xmlns="http://www.w3.org/2000/svg" d="M65.833,10c-3.594,0-6.988,0.804-10.055,2.21C61.465,17.806,65,25.579,65,34.167c0,8.587-3.535,16.36-9.222,21.956  c3.066,1.406,6.461,2.21,10.055,2.21C79.18,58.333,90,47.513,90,34.167C90,20.82,79.18,10,65.833,10z"></path><path xmlns="http://www.w3.org/2000/svg" d="M34.167,35c8.587,0,16.36,3.535,21.956,9.219c1.406-3.063,2.21-6.458,2.21-10.052C58.333,20.82,47.513,10,34.167,10  C20.82,10,10,20.82,10,34.167c0,3.594,0.804,6.988,2.21,10.052C17.806,38.535,25.579,35,34.167,35z"></path></g><g id="SvgjsG8166" featureKey="nameFeature-0" transform="matrix(1.5679111255455143,0,0,1.5679111255455143,133.75344474340008,-1.0476075126283568)" fill="#000000"><path d="M19.531 16.309 l-10.82 0 l0 7.7148 l9.5703 0 l0 4.1211 l-9.5703 0 l0 7.6758 l10.82 0 l0 4.1797 l-15.547 0 l0 -27.852 l15.547 0 l0 4.1602 z M37.6170625 20.352 l4.7852 0 l-8.1836 19.648 l-3.8867 0 l-8.125 -19.648 l4.7656 0 l5.293 14.492 z M63.7113125 29.844 l-0.058594 1.1328 l-14.941 0 c0.17578 3.9063 2.6953 5.7813 5.6836 5.7813 c2.1875 0 3.9648 -1.1133 4.8633 -3.0859 l4.1016 0.70313 c-1.3672 3.7891 -4.7656 5.9961 -8.9258 5.9961 c-6.0352 0 -10.137 -3.75 -10.137 -10.195 s4.1992 -10.215 10 -10.215 c5.4102 0 9.3945 3.1641 9.4141 9.8828 z M54.3163125 23.301 c-2.7539 0 -4.7852 1.3281 -5.4102 4.3164 l10.293 0 c-0.35156 -2.9102 -2.2852 -4.3164 -4.8828 -4.3164 z M78.9455 19.98 c4.3945 0 7.0703 2.4219 7.0703 6.7969 l0 13.223 l-4.5313 0 l0 -12.246 c0 -2.9688 -1.7969 -4.1016 -3.8672 -4.1016 c-2.4805 0 -4.6094 1.4063 -4.6289 5.0586 l0 11.289 l-4.4922 0 l0 -19.648 l4.4922 0 l0 2.3242 c1.3086 -1.6992 3.3984 -2.6953 5.957 -2.6953 z M98.78909375 40 c-3.5156 0 -5.625 -2.0703 -5.625 -5.7422 l0 -10.391 l-3.9258 0 l0 -3.5156 l1.3477 0 c2.0703 0 3.0273 -0.82031 3.0273 -3.3789 l0 -3.0469 l4.1016 0 l0 6.4258 l4.2773 0 l0 3.5156 l-4.2773 0 l0 9.9219 c0 1.8359 0.99609 2.7344 2.5 2.7344 l1.7773 0 l0 3.4766 l-3.2031 0 z M104.27734 40 l10.859 -14.531 l-10.469 -13.32 l5.6836 0 l7.5586 9.9609 l7.5391 -9.9609 l5.6836 0 l-10.449 13.32 l10.859 14.531 l-5.9375 0 l-7.6953 -10.82 l-7.6953 10.82 l-5.9375 0 z"></path></g><g id="SvgjsG8167" featureKey="sloganFeature-0" transform="matrix(1,0,0,1,139.75999975204468,71.78000020980835)" fill="#000000"><path d="M1.8 5.6 l4.24 6.94 l4.34 -6.94 l1.58 0 l-5.22 8.12 l0 6.28 l-1.36 0 l0 -6.18 l-5.14 -8.22 l1.56 0 z M13.280000000000001 12.82 c-0.02 -4.2 2.34 -7.6 6.64 -7.6 c4.5 0 6.78 3.38 6.78 7.6 c0 4.14 -2.28 7.56 -6.72 7.56 s-6.7 -3.42 -6.7 -7.56 z M20 19.22 c3.74 0 5.34 -3.04 5.34 -6.4 c0 -4 -2.06 -6.44 -5.38 -6.44 c-3.7 0 -5.32 3.1 -5.32 6.44 c0 3.4 1.6 6.4 5.36 6.4 z M29.42 14.58 l0 -8.98 l1.36 0 l0 8.58 c0 3.56 1.28 5.04 4.22 5.04 c3.1 0 4.22 -1.64 4.22 -5.04 l0 -8.58 l1.36 0 l0 8.98 c0 3.74 -1.86 5.8 -5.58 5.8 c-3.76 0 -5.58 -2.12 -5.58 -5.8 z M45.18 12.3 l4.24 0 c2.02 0 3.58 -0.84 3.58 -2.86 c0 -2.16 -1.68 -2.68 -3.5 -2.68 l-4.32 0 l0 5.54 z M49.46 13.46 l-4.28 0 l0 6.54 l-1.36 0 l0 -14.4 l5.64 0 c3.16 0 4.9 1.12 4.9 3.78 c0 1.82 -0.68 2.78 -2.34 3.52 c1.7 0.58 1.8 2.38 1.84 3.9 c0.06 2.18 0.24 2.78 0.6 3.06 l0 0.14 l-1.5 0 c-0.56 -0.98 -0.42 -3.68 -0.64 -4.78 c-0.32 -1.56 -1.5 -1.76 -2.86 -1.76 z M72.52000000000001 20 l-9.78 0 l0 -14.4 l9.58 0 l0 1.16 l-8.22 0 l0 5.2 l7.42 0 l0 1.16 l-7.42 0 l0 5.72 l8.42 0 l0 1.16 z M78.7 20 l-5 -14.4 l1.42 0 l4.34 12.8 l4.32 -12.8 l1.42 0 l-5 14.4 l-1.5 0 z M96.96000000000001 20 l-9.78 0 l0 -14.4 l9.58 0 l0 1.16 l-8.22 0 l0 5.2 l7.42 0 l0 1.16 l-7.42 0 l0 5.72 l8.42 0 l0 1.16 z M109.04 20 l-8.28 -12.56 l-0.04 0 l0 12.56 l-1.36 0 l0 -14.4 l1.54 0 l8.32 12.58 l0.04 0 l0 -12.58 l1.36 0 l0 14.4 l-1.58 0 z M112.53999999999999 6.76 l0 -1.16 l10.48 0 l0 1.16 l-4.56 0 l0 13.24 l-1.36 0 l0 -13.24 l-4.56 0 z M124.2 15.7 l1.32 0 c0.22 2.58 1.94 3.52 4.14 3.52 c2.58 0 3.66 -1.4 3.66 -2.98 c0 -4.46 -8.78 -1.5 -8.78 -7.16 c0 -2 1.66 -3.86 4.88 -3.86 c3.24 0 4.86 1.96 4.84 4.3 l-1.3 0 c0 -2.2 -1.7 -3.14 -3.54 -3.14 c-2.76 0 -3.76 1.7 -3.52 3.18 c0.62 3.72 8.78 1.04 8.78 6.62 c0 2.64 -1.94 4.2 -5.26 4.2 c-3 0 -5.22 -1.56 -5.22 -4.68 z M142.18 12.82 c-0.02 -4.2 2.34 -7.6 6.64 -7.6 c4.5 0 6.78 3.38 6.78 7.6 c0 4.14 -2.28 7.56 -6.72 7.56 s-6.7 -3.42 -6.7 -7.56 z M148.9 19.22 c3.74 0 5.34 -3.04 5.34 -6.4 c0 -4 -2.06 -6.44 -5.38 -6.44 c-3.7 0 -5.32 3.1 -5.32 6.44 c0 3.4 1.6 6.4 5.36 6.4 z M158.32 14.58 l0 -8.98 l1.36 0 l0 8.58 c0 3.56 1.28 5.04 4.22 5.04 c3.1 0 4.22 -1.64 4.22 -5.04 l0 -8.58 l1.36 0 l0 8.98 c0 3.74 -1.86 5.8 -5.58 5.8 c-3.76 0 -5.58 -2.12 -5.58 -5.8 z M174.08 12.3 l4.24 0 c2.02 0 3.58 -0.84 3.58 -2.86 c0 -2.16 -1.68 -2.68 -3.5 -2.68 l-4.32 0 l0 5.54 z M178.36 13.46 l-4.28 0 l0 6.54 l-1.36 0 l0 -14.4 l5.64 0 c3.16 0 4.9 1.12 4.9 3.78 c0 1.82 -0.68 2.78 -2.34 3.52 c1.7 0.58 1.8 2.38 1.84 3.9 c0.06 2.18 0.24 2.78 0.6 3.06 l0 0.14 l-1.5 0 c-0.56 -0.98 -0.42 -3.68 -0.64 -4.78 c-0.32 -1.56 -1.5 -1.76 -2.86 -1.76 z M190.88000000000002 15.7 l1.32 0 c0.22 2.58 1.94 3.52 4.14 3.52 c2.58 0 3.66 -1.4 3.66 -2.98 c0 -4.46 -8.78 -1.5 -8.78 -7.16 c0 -2 1.66 -3.86 4.88 -3.86 c3.24 0 4.86 1.96 4.84 4.3 l-1.3 0 c0 -2.2 -1.7 -3.14 -3.54 -3.14 c-2.76 0 -3.76 1.7 -3.52 3.18 c0.62 3.72 8.78 1.04 8.78 6.62 c0 2.64 -1.94 4.2 -5.26 4.2 c-3 0 -5.22 -1.56 -5.22 -4.68 z M205.16 20 l-1.36 0 l0 -14.4 l5.26 0 c3.74 0 4.7 1.86 4.7 4.02 c0 3.22 -2.86 4.02 -5.52 4.02 l-3.08 0 l0 6.36 z M205.16 12.48 l3.12 0 c2.54 0 4.12 -0.52 4.12 -2.96 c0 -1.8 -1.16 -2.76 -3.72 -2.76 l-3.52 0 l0 5.72 z M216.16 20 l-1.4 0 l5.66 -14.4 l1.54 0 l5.52 14.4 l-1.4 0 l-1.66 -4.52 l-6.56 0 z M221.14000000000001 6.76 l-2.82 7.56 l5.64 0 z M241.04000000000002 9.78 l-1.4 0 c-0.56 -2.46 -2.08 -3.4 -4.54 -3.4 c-3.48 0 -4.98 2.98 -4.98 6.38 c0 3.22 1.18 6.46 5.1 6.46 c2.48 0 4.02 -1.68 4.56 -3.96 l1.42 0 c-0.64 2.78 -2.38 5.12 -6.24 5.12 c-4.44 0 -6.2 -3.5 -6.2 -7.58 c0 -5.5 2.88 -7.58 6.7 -7.58 c2.96 0 5.12 1.58 5.58 4.56 z M253.64000000000001 20 l-9.78 0 l0 -14.4 l9.58 0 l0 1.16 l-8.22 0 l0 5.2 l7.42 0 l0 1.16 l-7.42 0 l0 5.72 l8.42 0 l0 1.16 z"></path></g>
			</g>
		</svg>
	